<svg xmlns="http://www.w3.org/2000/svg" width="1200" height="420" viewBox="0 0 1200 420">
  <defs>
    <linearGradient id="bg" x1="0" x2="1">
      <stop offset="0" stop-color="#f5fbff"/>
      <stop offset="1" stop-color="#eef6ff"/>
    </linearGradient>
    <filter id="shadow" x="-20%" y="-20%" width="140%" height="140%">
      <feDropShadow dx="0" dy="6" stdDeviation="18" flood-color="#0366d6" flood-opacity="0.08"/>
    </filter>
  </defs>

  <rect width="100%" height="100%" fill="url(#bg)" rx="12"/>

  <!-- left panel -->
  <g transform="translate(48,54)">
    <rect width="520" height="312" rx="14" fill="#ffffff" filter="url(#shadow)" stroke="#e6f0ff" />
    <text x="32" y="56" font-family="Inter, Arial, Helvetica, sans-serif" font-size="34" font-weight="700" fill="#0b2545">DingBot</text>
    <text x="32" y="96" font-family="Inter, Arial, Helvetica, sans-serif" font-size="18" fill="#2b4b6f">Smart DingTalk assistant powered by Google Gemini</text>

    <g transform="translate(32,128)">
      <g transform="translate(0,0)">
        <rect x="0" y="0" width="44" height="44" rx="8" fill="#eef7ff" stroke="#cfe6ff"/> 
        <text x="22" y="30" font-size="18" text-anchor="middle" fill="#2b7cff">⚡</text>
        <text x="64" y="30" font-size="16" fill="#0b2545" font-family="Inter, Arial">Fast replies & Auto memory</text>
      </g>

      <g transform="translate(0,64)">
        <rect x="0" y="0" width="44" height="44" rx="8" fill="#fff6ef" stroke="#ffe6cd"/> 
        <text x="22" y="30" font-size="18" text-anchor="middle" fill="#ff9f1a">🤖</text>
        <text x="64" y="30" font-size="16" fill="#0b2545" font-family="Inter, Arial">Gemini-powered reasoning</text>
      </g>

      <g transform="translate(0,128)">
        <rect x="0" y="0" width="44" height="44" rx="8" fill="#f2fff6" stroke="#d8f5dd"/> 
        <text x="22" y="30" font-size="18" text-anchor="middle" fill="#07a051">📁</text>
        <text x="64" y="30" font-size="16" fill="#0b2545" font-family="Inter, Arial">Local JSONL memory & facts</text>
      </g>
    </g>

    <g transform="translate(32,244)">
      <rect x="0" y="0" width="160" height="40" rx="8" fill="#2b7cff" />
      <text x="80" y="26" font-size="15" font-weight="700" text-anchor="middle" fill="#fff">Get started</text>
    </g>
  </g>

  <!-- right illustration -->
  <g transform="translate(636,46)">
    <rect width="496" height="312" rx="14" fill="#fbfdff" stroke="#eaf5ff" />

    <!-- schematic chat bubbles + model -->
    <g transform="translate(36,28)">
      <rect x="0" y="0" width="380" height="88" rx="12" fill="#e8f3ff" />
      <text x="16" y="28" font-family="Inter, Arial" font-size="14" fill="#0b2545">User: "Any updates on Clawbot?"</text>
      <text x="16" y="48" font-family="Inter, Arial" font-size="12" fill="#22548f">Agent (Gemini): analyzing ⋯</text>

      <g transform="translate(240,44)">
        <rect x="0" y="0" width="96" height="24" rx="8" fill="#fff" stroke="#cfe6ff"/>
        <text x="48" y="16" font-size="12" text-anchor="middle" fill="#2b7cff">Reply</text>
      </g>
    </g>

    <g transform="translate(36,132)">
      <rect x="0" y="0" width="120" height="64" rx="12" fill="#ffffff" stroke="#e6f0ff"/>
      <text x="12" y="30" font-family="Inter, Arial" font-size="13" fill="#0b2545">Memory</text>
      <text x="12" y="48" font-family="Inter, Arial" font-size="11" fill="#6b7b8e">dingbot_memory.jsonl</text>

      <rect x="136" y="0" width="120" height="64" rx="12" fill="#ffffff" stroke="#e6f0ff"/>
      <text x="148" y="30" font-family="Inter, Arial" font-size="13" fill="#0b2545">Facts</text>
      <text x="148" y="48" font-family="Inter, Arial" font-size="11" fill="#6b7b8e">dingbot_fact.json</text>

      <line x1="120" y1="32" x2="136" y2="32" stroke="#cfe6ff" stroke-width="2" stroke-linecap="round"/>
    </g>

    <g transform="translate(36,220)">
      <rect x="0" y="0" width="420" height="56" rx="8" fill="#f8fbff" stroke="#e8f4ff"/>
      <text x="16" y="36" font-family="Inter, Arial" font-size="12" fill="#0b2545">Scheduler: extracts facts & publishes personalized push messages (every 60s)</text>
    </g>
  </g>

  <!-- footer -->
  <text x="24" y="392" font-family="Inter, Arial" font-size="11" fill="#6b7b8e">Open-source • MIT • Built for DingTalk + Gemini</text>
</svg>